# xmcd
#
# Track frame offsets:
#	150
#	19299
#	34777
#	51937
#	68882
#	83661
#	100681
#	118493
#	137122
#	156662
#	169935
#
# Disc length: 2436 seconds
#
# Revision: 6
# Processed by: cddbd v1.5.2PL0 Copyright (c) Steve Scherf et al.
# Submitted via: audiograbber 1.83.01
#
DISCID=9c09820b
DTITLE=Martina McBride - Eleven
DYEAR=2011
DGENRE=Country
TTITLE0=One Night
TTITLE1=Always Be This Way
TTITLE2=I'm Gonna Love You Through It
TTITLE3=Marry Me
TTITLE4=Broken Umbrella
TTITLE5=You Can Gett Your Lovin' Right Here
TTITLE6=Whatcha Gonna Do
TTITLE7=Teenage Daughters
TTITLE8=Summer Of Love
TTITLE9=When You Love A Sinner
TTITLE10=Long Distance Lullaby
EXTD=
EXTT0=
EXTT1=
EXTT2=
EXTT3=
EXTT4=
EXTT5=
EXTT6=
EXTT7=
EXTT8=
EXTT9=
EXTT10=
PLAYORDER=
